<svg width="20" height="19" viewBox="0 0 20 19" fill="none" xmlns="http://www.w3.org/2000/svg">
<path opacity="0.5" d="M18.5625 6.83984C18.8438 6.91016 19.0898 7.05078 19.2656 7.26172C19.4414 7.50781 19.5117 7.75391 19.5117 8.03516C19.5117 8.31641 19.4062 8.5625 19.1953 8.77344L15.4688 12.3945L16.3477 17.5273C16.3828 17.8086 16.3125 18.0898 16.1719 18.3359C16.0312 18.582 15.8203 18.7227 15.5391 18.793C15.2578 18.8633 14.9766 18.8281 14.7305 18.6875L10.125 16.2969L5.51953 18.6875C5.23828 18.8281 4.99219 18.8633 4.71094 18.793C4.42969 18.7227 4.18359 18.582 4.04297 18.3359C3.90234 18.0898 3.83203 17.8086 3.90234 17.5273L4.78125 12.3945L1.05469 8.77344C0.84375 8.5625 0.703125 8.31641 0.703125 8.03516C0.703125 7.75391 0.773438 7.50781 0.949219 7.26172C1.125 7.05078 1.37109 6.91016 1.6875 6.83984L6.82031 6.10156L9.10547 1.46094C9.24609 1.17969 9.42188 1.00391 9.70312 0.898438C9.98438 0.828125 10.2305 0.828125 10.5117 0.898438C10.793 1.00391 11.0039 1.17969 11.1445 1.46094L13.4297 6.10156L18.5625 6.83984ZM14.2734 12.0078L18.4219 7.96484L12.6914 7.12109L10.125 1.95312L7.55859 7.12109L1.86328 7.96484L5.97656 12.0078L5.02734 17.7031L10.125 14.9961L15.2578 17.7031L14.2734 12.0078Z" fill="#212121"/>
</svg>
